<svg width="37" height="31" viewBox="0 0 37 31" fill="none" xmlns="http://www.w3.org/2000/svg">
<path d="M21.2083 0.125C17.1306 0.125 13.2199 1.74486 10.3365 4.62823C7.45317 7.5116 5.83331 11.4223 5.83331 15.5H0.708313L7.35373 22.1454L7.47331 22.3846L14.375 15.5H9.24998C9.24998 12.3285 10.5099 9.2868 12.7525 7.04418C14.9951 4.80156 18.0368 3.54167 21.2083 3.54167C24.3799 3.54167 27.4215 4.80156 29.6641 7.04418C31.9068 9.2868 33.1666 12.3285 33.1666 15.5C33.1666 18.6715 31.9068 21.7132 29.6641 23.9558C27.4215 26.1984 24.3799 27.4583 21.2083 27.4583C17.9112 27.4583 14.9216 26.1088 12.7691 23.9392L10.3433 26.365C13.1279 29.1667 16.9375 30.875 21.2083 30.875C25.286 30.875 29.1967 29.2551 32.0801 26.3718C34.9635 23.4884 36.5833 19.5777 36.5833 15.5C36.5833 11.4223 34.9635 7.5116 32.0801 4.62823C29.1967 1.74486 25.286 0.125 21.2083 0.125Z" fill="white"/>
</svg>
